<?xml version="1.0" encoding="utf-8"?>
<!-- Generator: Adobe Illustrator 21.1.0, SVG Export Plug-In . SVG Version: 6.00 Build 0)  -->
<svg version="1.1" id="Layer_1" xmlns="http://www.w3.org/2000/svg" xmlns:xlink="http://www.w3.org/1999/xlink" x="0px" y="0px" viewBox="0 0 128 128" style="enable-background:new 0 0 128 128;" xml:space="preserve">

<g>
	<g>
		<path d="M99,54c11,0,20,9,20,20s-9,20-20,20H29C18,94,9,85,9,74s9-20,20-20h5v-5c0-16.6,13.4-30,30-30s30,13.4,30,30
			v5H99z" style="fill:#FFFFFF;"/>
	</g>
	<g>
		<g>
			<path d="M106,105c-1.7,0-3-1.3-3-3V92c0-1.7,1.3-3,3-3s3,1.3,3,3v10C109,103.7,107.7,105,106,105z" style="fill:#FFFFFF;"/>
		</g>
		<g>
			<path d="M106,115c-0.2,0-0.4,0-0.6-0.1c-0.2,0-0.4-0.1-0.6-0.2c-0.2-0.1-0.3-0.2-0.5-0.3c-0.2-0.1-0.3-0.2-0.4-0.4
				c-0.1-0.1-0.3-0.3-0.4-0.4c-0.1-0.2-0.2-0.3-0.3-0.5c-0.1-0.2-0.1-0.4-0.2-0.6c0-0.2-0.1-0.4-0.1-0.6c0-0.2,0-0.4,0.1-0.6
				c0-0.2,0.1-0.4,0.2-0.6c0.1-0.2,0.2-0.3,0.3-0.5c0.1-0.2,0.2-0.3,0.4-0.4c0.7-0.7,1.7-1,2.7-0.8c0.2,0,0.4,0.1,0.6,0.2
				c0.2,0.1,0.4,0.2,0.5,0.3c0.2,0.1,0.3,0.2,0.4,0.4c0.6,0.6,0.9,1.3,0.9,2.1s-0.3,1.6-0.9,2.1c-0.1,0.1-0.3,0.3-0.4,0.4
				c-0.2,0.1-0.3,0.2-0.5,0.3c-0.2,0.1-0.4,0.1-0.6,0.2C106.4,115,106.2,115,106,115z" style="fill:#FFFFFF;"/>
		</g>
	</g>
	<g>
		<g>
			<path d="M119.5,111.4L98.3,76.1c-0.9-1.5-2.5-2.4-4.3-2.4s-3.4,0.9-4.3,2.4l-21.2,35.3c-0.9,1.6-1,3.4-0.1,5
				c0.9,1.6,2.5,2.5,4.4,2.5h42.3c1.8,0,3.5-0.9,4.4-2.5C120.4,114.9,120.4,113,119.5,111.4z" style="fill:#FCCA3D;"/>
		</g>
		<g>
			<path d="M94,102c-1.7,0-3-1.3-3-3V89c0-1.7,1.3-3,3-3s3,1.3,3,3v10C97,100.7,95.7,102,94,102z" style="fill:#FFFFFF;"/>
		</g>
		<g>
			<path d="M94,112c-0.8,0-1.6-0.3-2.1-0.9c-0.1-0.1-0.3-0.3-0.4-0.5c-0.1-0.2-0.2-0.3-0.3-0.5
				c-0.1-0.2-0.1-0.4-0.2-0.6c0-0.2-0.1-0.4-0.1-0.6c0-0.8,0.3-1.6,0.9-2.1c1.1-1.1,3.1-1.1,4.2,0c0.6,0.6,0.9,1.3,0.9,2.1
				c0,0.2,0,0.4-0.1,0.6c0,0.2-0.1,0.4-0.2,0.6c-0.1,0.2-0.2,0.4-0.3,0.5c-0.1,0.2-0.2,0.3-0.4,0.5C95.6,111.7,94.8,112,94,112z" style="fill:#FFFFFF;"/>
		</g>
	</g>
	<g>
		<path d="M61,97H29C16.3,97,6,86.7,6,74s10.3-23,23-23h2v-2c0-18.2,14.8-33,33-33s33,14.8,33,33v2h2
			c12.7,0,23,10.3,23,23c0,2.1-0.3,4.1-0.8,6.1c-0.4,1.6-2.1,2.5-3.7,2.1c-1.6-0.4-2.5-2.1-2.1-3.7c0.4-1.5,0.6-3,0.6-4.5
			c0-9.4-7.6-17-17-17h-5c-1.7,0-3-1.3-3-3v-5c0-14.9-12.1-27-27-27S37,34.1,37,49v5c0,1.7-1.3,3-3,3h-5c-9.4,0-17,7.6-17,17
			s7.6,17,17,17h32c1.7,0,3,1.3,3,3S62.7,97,61,97z" style="fill:#444B54;"/>
	</g>
</g>
</svg>
